# AST/ASF file generated using VICON BodyLanguage
# -----------------------------------------------
:version 1.10
:name VICON
:units
  mass 1.0
  length 0.45
  angle deg
:documentation
   .ast/.asf automatically generated from VICON data using
   VICON BodyBuilder and BodyLanguage model FoxedUp or BRILLIANT.MOD
:root
   order TX TY TZ RX RY RZ
   axis XYZ
   position 0 0 0  
   orientation 0 -0 0 
:bonedata
  begin
     id 1 
     name lhipjoint
     direction 0.515797 -0.759363 0.396637 
     length 2.47888 
     axis 0 -0 0  XYZ
  end
  begin
     id 2 
     name lfemur
     direction 0.34202 -0.939693 0  
     length 6.81885  
     axis 0 -0 20  XYZ
    dof rx ry rz
    limits (-160.0 20.0)
           (-70.0 70.0)
           (-60.0 70.0)
  end
  begin
     id 3 
     name ltibia
     direction 0.342037 -0.939687 0   
     length 7.89258   
     axis 0 -0 20   XYZ
    dof rx
    limits (-10.0 170.0)
  end
  begin
     id 4 
     name lfoot
     direction 0.173497 -0.476678 0.861787   
     length 2.51543   
     axis -90 -1.13533e-015 20   XYZ
    dof rx rz
    limits (-45.0 90.0)
           (-70.0 20.0)
  end
  begin
     id 5 
     name ltoes
     direction 1.53564e-011 -4.21897e-011 1   
     length 1.21388   
     axis -90 -1.13533e-015 20   XYZ
    dof rx
    limits (-90.0 20.0)
  end
  begin
     id 6 
     name rhipjoint
     direction -0.489454 -0.772941 0.403729   
     length 2.43534  
     axis 0 -0 0  XYZ 
  end
  begin
     id 7 
     name rfemur
     direction -0.34202 -0.939693 0   
     length 7.10357   
     axis 0 -0 -20   XYZ
    dof rx ry rz
    limits (-160.0 20.0)
           (-70.0 70.0)
           (-70.0 60.0)
  end
  begin
     id 8 
     name rtibia
     direction -0.34202 -0.939693 0   
     length 9.16127   
     axis 0 -0 -20   XYZ
    dof rx
    limits (-10.0 170.0)
 end
 begin
     id 9 
     name rfoot
     direction -0.270974 -0.748671 0.605033   
     length 1.74894  
     axis -90 1.13533e-015 -20   XYZ
    dof rx rz
    limits (-45.0 90.0)
           (-20.0 70.0)
  end
  begin
     id 10 
     name rtoes
     direction -1.53557e-011 -4.21759e-011 1   
     length 0.787585   
     axis -90 1.13533e-015 -20   XYZ
    dof rx
    limits (-90.0 20.0)
  end
  begin
     id 11 
     name lowerback
     direction -0.0140249 0.999561 0.0260968   
     length 2.16963   
     axis 0 -0 0   XYZ
    dof rx ry rz
    limits (-20.0 45.0)
           (-30.0 30.0)
           (-30.0 30.0)
  end
  begin
     id 12 
     name upperback
     direction 0.00860018 0.999959 -0.002711   
     length 2.1726   
     axis 0 -0 0   XYZ
    dof rx ry rz
    limits (-20.0 45.0)
           (-30.0 30.0)
           (-30.0 30.0)
  end
  begin
     id 13 
     name thorax
     direction 0.015211 0.999782 -0.0143191   
     length 2.17061   
     axis 0 -0 0   XYZ
    dof rx ry rz
    limits (-20.0 45.0)
           (-30.0 30.0)
           (-30.0 30.0)
  end
  begin
     id 14 
     name lowerneck
     direction -0.0140143 0.999447 0.030145   
     length 2.26749   
     axis 0 -0 0   XYZ
    dof rx ry rz
    limits (-20.0 45.0)
           (-30.0 30.0)
           (-30.0 30.0)
  end
  begin
     id 15 
     name upperneck
     direction 0.118062 0.961438 -0.248392   
     length 2.22728   
     axis 0 -0 0   XYZ
    dof rx ry rz
    limits (-20.0 45.0)
           (-30.0 30.0)
           (-30.0 30.0)
  end
  begin
     id 16
     name head
     direction 0.0431885 0.9954 -0.085514  
     length 2.28786  
     axis 0 -0 0   XYZ
    dof rx ry rz
    limits (-20.0 45.0)
           (-30.0 30.0)
           (-30.0 30.0)
  end
  begin
     id 17 
     name lclavicle
     direction 0.912126 0.409548 0.0172323  
     length 4.31571  
     axis 0 -0 0   XYZ
    dof ry rz
    limits (-20.0 10.0)
           (0.0 20.0)
  end
  begin
     id 18 
     name lhumerus
     direction 1 -4.48977e-011 1.93091e-027   
     length 5.13658   
     axis 180 -30 -90   XYZ
    dof rx ry rz
    limits (-60.0 90.0)
           (-90.0 90.0)
           (-90.0 90.0)
  end
  begin
     id 19
     name lradius
     direction 1 -4.48916e-011 6.84018e-027   
     length 3.22473   
     axis 180 -30 -90   XYZ
    dof rx
    limits (-10.0 170.0)
  end
  begin
     id 20
     name lwrist
     direction 1 -4.48987e-011 7.01981e-027   
     length 1.61236   
     axis -4.37994e-015 90 90   XYZ
    dof ry
    limits (-180.0 0.0)
 end
  begin
     id 21 
     name lhand
     direction 1 -4.49037e-011 1.40335e-026   
     length 0.936406   
     axis -8.96029e-015 90 90   XYZ
    dof rx rz
    limits (-90.0 90.0)
           (-45.0 45.0)
  end
  begin
     id 22 
     name lfingers
     direction 1 -4.48886e-011 2.8104e-026   
     length 0.754955   
     axis -1.79203e-014 90 90   XYZ
    dof rx
    limits (0.0 90.0)
  end
  begin
     id 23
     name lthumb
     direction 0.707107 -6.34937e-011 0.707107   
     length 1.08397   
     axis -90 45 -4.48555e-014   XYZ
    dof rx rz
    limits (-45.0 45.0)
           (-45.0 45.0)
  end
  begin
     id 24 
     name rclavicle
     direction -0.947962 0.317997 0.0156638   
     length 4.86918  
     axis 0 -0 0   XYZ 
    dof ry rz
    limits (-10.0 20.0)
           (-20.0 0.0)
  end
  begin
     id 25 
     name rhumerus
     direction -1 -4.48951e-011 2.80534e-018  
     length 5.60911   
     axis 180 30 90   XYZ
    dof rx ry rz
    limits (-90.0 60.0)
           (-90.0 90.0)
           (-90.0 90.0)
  end
  begin
     id 26 
     name rradius
     direction -1 -4.4898e-011 2.11315e-027   
     length 3.38704   
     axis 180 30 90   XYZ
    dof rx
    limits (-10.0 170.0)
  end
  begin
     id 27 
     name rwrist
     direction -1 -4.48933e-011 7.02314e-027   
     length 1.69352   
     axis -4.37994e-015 -90 -90   XYZ
    dof ry
    limits (-180.0 0.0)
  end
  begin
     id 28
     name rhand
     direction -1 -4.48937e-011 1.40458e-026   
     length 0.755878   
     axis -8.96029e-015 -90 -90   XYZ
    dof rx rz
    limits (-90.0 90.0)
           (-45.0 45.0)
  end
  begin
     id 29
     name rfingers
     direction -1 -4.4901e-011 2.80737e-026   
     length 0.609409   
     axis -1.79203e-014 -90 -90   XYZ
    dof rx
    limits (0.0 90.0)
  end
  begin
     id 30
     name rthumb
     direction -0.707107 -6.34968e-011 0.707107   
     length 0.874992   
     axis -90 -45 4.48555e-014   XYZ
    dof rx rz
    limits (-45.0 45.0)
           (-45.0 45.0)
  end
:hierarchy
  begin
    root lhipjoint rhipjoint lowerback
    lhipjoint lfemur
    lfemur ltibia
    ltibia lfoot
    lfoot ltoes
    rhipjoint rfemur
    rfemur rtibia
    rtibia rfoot
    rfoot rtoes
    lowerback upperback
    upperback thorax
    thorax lowerneck lclavicle rclavicle
    lowerneck upperneck
    upperneck head
    lclavicle lhumerus
    lhumerus lradius
    lradius lwrist
    lwrist lhand lthumb
    lhand lfingers
    rclavicle rhumerus
    rhumerus rradius
    rradius rwrist
    rwrist rhand rthumb
    rhand rfingers
  end

#!OML:ASF C:\ViconDB\ViconDB\414\Spring2016\041811\Spring2016.ASF
:FULLY-SPECIFIED
:DEGREES
61
root 11.9731 17.9427 9.68435 -174.855 -8.64452 -178.761
lowerback -4.33118 0.907229 -2.47666
upperback 0.6664 1.32478 0.613819
thorax 3.04461 0.611106 2.11235
lowerneck -12.0383 1.15282 -6.12579
upperneck 23.1251 -1.36095 12.7194
head 9.32594 -0.292847 5.25538
rclavicle 9.26834e-015 -5.86415e-015
rhumerus -83.2062 30.2912 -113.714
rradius 86.8037
rwrist 33.3939
rhand -48.3114 0.0192393
rfingers 7.12502
rthumb -20.9676 -28.8674
lclavicle 9.26834e-015 -5.86415e-015
lhumerus -85.8812 -43.7032 121.492
lradius 74.5566
lwrist -28.938
lhand -46.8323 -1.07122
lfingers 7.12502
lthumb -19.5461 27.9663
rfemur 160.399 24.4001 -178.75
rtibia 30.1336
rfoot -1.75377 -53.5099
rtoes -9.39017
lfemur -8.66273 -9.40537 -17.4374
ltibia 29.2356
lfoot -26.6162 -0.423591
ltoes -11.3455
62
root 11.9269 17.9296 9.68633 -175.136 -8.9074 -178.723
lowerback -3.93227 0.879762 -2.48439
upperback 0.775976 1.27779 0.6889
thorax 2.93392 0.587708 2.18414
lowerneck -12.1342 1.05538 -6.08769
upperneck 23.1092 -1.46825 12.6237
head 9.35127 -0.34197 5.20421
rclavicle 9.15652e-015 -1.59028e-015
rhumerus -83.1052 30.2727 -113.459
rradius 86.9431
rwrist 33.5938
rhand -48.3024 0.198422
rfingers 7.12502
rthumb -20.9589 -28.6892
lclavicle 9.15652e-015 -1.59028e-015
lhumerus -86.0633 -43.7862 121.736
lradius 74.6644
lwrist -28.362
lhand -46.6888 -1.31515
lfingers 7.12502
lthumb -19.4081 27.7363
rfemur 159.338 23.093 -178.934
rtibia 31.5204
rfoot 1.46733 -55.0531
rtoes -10.9633
lfemur -8.50293 -9.39826 -17.5604
ltibia 29.4259
lfoot -26.7186 -0.763064
ltoes -11.1503
63
root 11.8868 17.9154 9.69038 -175.34 -9.10747 -178.693
lowerback -3.531 0.904581 -2.41638
upperback 0.809862 1.29836 0.679297
thorax 2.74352 0.601773 2.12933
lowerneck -12.044 0.911765 -6.10578
upperneck 22.9635 -1.64634 12.6133
head 9.30358 -0.428714 5.17735
rclavicle 5.57591e-014 4.37326e-015
rhumerus -82.9489 30.032 -113.22
rradius 86.9895
rwrist 34.0267
rhand -48.175 0.284479
rfingers 7.12502
rthumb -20.8366 -28.6166
lclavicle 5.57591e-014 4.37326e-015
lhumerus -86.4797 -43.9718 122.111
lradius 74.6624
lwrist -28.5612
lhand -46.8956 -0.699302
lfingers 7.12502
lthumb -19.6069 28.332
rfemur 158.385 21.8331 -179.049
rtibia 33.0339
rfoot 4.45807 -56.7095
rtoes -12.35
lfemur -8.43936 -9.18386 -17.6388
ltibia 29.6292
lfoot -26.7061 -1.27314
ltoes -11.0118
64
root 11.849 17.9022 9.68818 -175.608 -9.34382 -178.706
lowerback -2.89174 0.816788 -2.32388
upperback 0.752656 1.16533 0.527502
thorax 2.33705 0.544492 1.90108
lowerneck -12.0381 0.926081 -5.87573
upperneck 23.0103 -1.7367 12.7212
head 9.3297 -0.449531 5.16595
rclavicle 1.51573e-014 -4.37326e-015
rhumerus -83.1211 29.9267 -113.558
rradius 87.0688
rwrist 34.2072
rhand -48.3613 0.488253
rfingers 7.12502
rthumb -21.0156 -28.3931
lclavicle 1.51573e-014 -4.37326e-015
lhumerus -87.0399 -43.9178 122.241
lradius 74.7079
lwrist -28.4096
lhand -46.9339 -0.548454
lfingers 7.12502
lthumb -19.6438 28.4791
rfemur 157.211 20.8122 -179.227
rtibia 34.7236
rfoot 7.04471 -58.9163
rtoes -15.2628
lfemur -8.22823 -8.85097 -17.755
ltibia 29.7332
lfoot -26.66 -1.91804
ltoes -10.9795
65
root 11.8055 17.8908 9.68787 -175.864 -9.50547 -178.784
lowerback -2.69787 0.833878 -2.64895
upperback 1.0077 1.19153 0.730039
thorax 2.47891 0.545681 2.29254
lowerneck -12.1512 0.736532 -6.15532
upperneck 22.789 -1.85426 12.6615
head 9.28825 -0.515652 5.17653
rclavicle -3.46258e-014 -2.68359e-015
rhumerus -82.8257 30.0552 -112.899
rradius 87.1744
rwrist 34.5527
rhand -48.3151 0.343957
rfingers 7.12502
rthumb -20.9711 -28.5423
lclavicle -3.46258e-014 -2.68359e-015
lhumerus -86.9668 -44.0955 122.614
lradius 74.7198
lwrist -28.2436
lhand -47.0496 -0.545742
lfingers 7.12502
lthumb -19.7549 28.4704
rfemur 156.052 19.8843 -179.464
rtibia 36.5228
rfoot 9.81894 -61.141
rtoes -17.3307
lfemur -7.96226 -8.8169 -18.0047
ltibia 29.7833
lfoot -26.7226 -2.1112
ltoes -11.5293
66
root 11.7728 17.8835 9.68893 -176.054 -9.65156 -179.001
lowerback -2.37623 0.8029 -3.09713
upperback 1.16499 1.15526 0.786039
thorax 2.45294 0.517591 2.59622
lowerneck -12.2647 0.620394 -6.29502
upperneck 22.6456 -1.94897 12.6848
head 9.27203 -0.557816 5.19655
rclavicle 5.76476e-015 -7.95139e-016
rhumerus -82.615 30.1118 -112.573
rradius 87.2121
rwrist 34.8266
rhand -48.3787 0.0701275
rfingers 7.12502
rthumb -21.0322 -28.8094
lclavicle 5.76476e-015 -7.95139e-016
lhumerus -87.0309 -44.2873 122.882
lradius 74.7689
lwrist -28.084
lhand -47.2237 -0.139805
lfingers 7.12502
lthumb -19.9223 28.859
rfemur 154.971 19.0005 -179.742
rtibia 38.4169
rfoot 12.7317 -63.4746
rtoes -20.5437
lfemur -7.75462 -8.55129 -18.3195
ltibia 29.7771
lfoot -26.6191 -2.62449
ltoes -11.2405
67
root 11.7311 17.8782 9.67379 -176.181 -9.77998 -179.037
lowerback -2.23691 0.805232 -3.15614
upperback 1.26232 1.15586 0.773222
thorax 2.47398 0.5147 2.61473
lowerneck -12.3277 0.508149 -6.36872
upperneck 22.5095 -2.09055 12.795
head 9.25474 -0.614063 5.22977
rclavicle -2.59166e-014 3.67752e-015
rhumerus -82.5068 30.0551 -112.369
rradius 87.3585
rwrist 34.7291
rhand -48.3828 0.630845
rfingers 7.12502
rthumb -21.0362 -28.2482
lclavicle -2.59166e-014 3.67752e-015
lhumerus -87.1295 -44.3432 123.101
lradius 74.6686
lwrist -27.9433
lhand -47.1492 -0.207386
lfingers 7.12502
lthumb -19.8507 28.7989
rfemur 153.911 18.5309 -179.802
rtibia 40.319
rfoot 15.7197 -66.0053
rtoes -22.7727
lfemur -7.51337 -8.43771 -18.4671
ltibia 29.6959
lfoot -26.6313 -3.02248
ltoes -10.7293
68
root 11.71 17.8813 9.67507 -176.383 -9.82862 -178.875
lowerback -1.70684 0.832477 -3.25612
upperback 1.26308 1.17401 0.867139
thorax 2.17151 0.526291 2.75844
lowerneck -12.3372 0.395865 -6.43994
upperneck 22.3975 -2.23435 12.8732
head 9.23563 -0.677812 5.25068
rclavicle -2.22887e-014 -8.05078e-015
rhumerus -82.4119 29.9172 -112.146
rradius 87.3366
rwrist 34.904
rhand -48.4841 1.01738
rfingers 7.12502
rthumb -21.1335 -27.8508
lclavicle -2.22887e-014 -8.05078e-015
lhumerus -87.3562 -44.4093 123.43
lradius 74.6171
lwrist -27.6831
lhand -47.2591 -0.189563
lfingers 7.12502
lthumb -19.9563 28.8057
rfemur 153.029 17.699 -179.463
rtibia 42.2158
rfoot 19.3659 -68.1897
rtoes -26.3719
lfemur -7.30327 -8.0192 -18.276
ltibia 29.5219
lfoot -26.4149 -3.58083
ltoes -10.7931
69
root 11.6686 17.8771 9.6596 -176.514 -9.92424 -179.122
lowerback -1.47243 0.820633 -3.512
upperback 1.35039 1.1569 0.811633
thorax 2.12736 0.512967 2.84118
lowerneck -12.359 0.277605 -6.53021
upperneck 22.2339 -2.36925 12.9523
head 9.20055 -0.73649 5.27476
rclavicle -1.85739e-014 3.47873e-015
rhumerus -82.3292 29.8717 -111.965
rradius 87.3536
rwrist 35.1314
rhand -48.5398 1.1932
rfingers 7.12502
rthumb -21.187 -27.669
lclavicle -1.85739e-014 3.47873e-015
lhumerus -87.5864 -44.4905 123.689
lradius 74.6872
lwrist -27.4996
lhand -47.394 -0.117709
lfingers 7.12502
lthumb -20.086 28.864
rfemur 152.055 17.4754 -179.702
rtibia 44.0322
rfoot 23.774 -69.8383
rtoes -27.0546
lfemur -6.87908 -8.04955 -18.7121
ltibia 29.2121
lfoot -26.3354 -3.66677
ltoes -10.757
